# xmcd
#
# Track frame offsets: 
#        150
#        11385
#        23037
#        38262
#        51237
#        61492
#        74815
#        86698
#        97713
#        110708
#        122333
#        140550
#
# Disc length: 2049 seconds
#
# Revision: 0
# Processed by: cddbd v1.5.2PL0 Copyright (c) Steve Scherf et al.
# Submitted via: ExactAudioCopy v0.95b3
#
DISCID=9807ff0c
DTITLE=Eartha Kitt  - Thursday's Child - 1956  
DYEAR=1900
DGENRE=
TTITLE0=Fascinating Man
TTITLE1=Mademoiselle Kitt
TTITLE2=Oggere
TTITLE3=No Importa Si Menti
TTITLE4=In Old Lisbon
TTITLE5=Just An Old Fashioned Girl
TTITLE6=Le Danseur De Charleston
TTITLE7=Lazy Afternoon
TTITLE8=Jonny
TTITLE9=If I Can't Take It With Me When I Go
TTITLE10=Thursday's Child
TTITLE11=Lullaby Of Birdland
EXTD=
EXTT0=
EXTT1=
EXTT2=
EXTT3=
EXTT4=
EXTT5=
EXTT6=
EXTT7=
EXTT8=
EXTT9=
EXTT10=
EXTT11=
PLAYORDER=
